<svg width="21" height="22" viewBox="0 0 21 22" fill="none" xmlns="http://www.w3.org/2000/svg">
<path d="M21 16.5C21 17.1483 20.7542 17.77 20.3166 18.2285C19.879 18.6869 19.2855 18.9444 18.6667 18.9444H2.33333C1.71449 18.9444 1.121 18.6869 0.683417 18.2285C0.245833 17.77 0 17.1483 0 16.5V5.49999C0 4.85168 0.245833 4.22993 0.683417 3.7715C1.121 3.31308 1.71449 3.05554 2.33333 3.05554H18.6667C19.2855 3.05554 19.879 3.31308 20.3166 3.7715C20.7542 4.22993 21 4.85168 21 5.49999V16.5Z" fill="#009B3A"/>
<path d="M19.0914 11L10.5 17.798L1.90869 11L10.5 4.20142L19.0914 11Z" fill="#FEDF01"/>
<path d="M10.486 14.9001C12.5665 14.9001 14.2531 13.1332 14.2531 10.9536C14.2531 8.77395 12.5665 7.00702 10.486 7.00702C8.40543 7.00702 6.71881 8.77395 6.71881 10.9536C6.71881 13.1332 8.40543 14.9001 10.486 14.9001Z" fill="#002776"/>
<path d="M7.16159 9.0976C6.96594 9.48386 6.83343 9.90174 6.76959 10.3339C9.10001 10.1567 12.2628 11.4895 13.6203 13.1419C13.8548 12.7728 14.0286 12.3597 14.1353 11.9173C12.46 10.2013 9.51709 9.08782 7.16159 9.0976Z" fill="#CBE9D4"/>
<path d="M7 11.1424H7.58333V11.7535H7V11.1424ZM7.58333 12.3646H8.16667V12.9757H7.58333V12.3646Z" fill="#88C9F9"/>
<path d="M8.75 11.1424H9.33333V11.7535H8.75V11.1424ZM9.91667 11.7535H10.5V12.3646H9.91667V11.7535ZM12.25 12.9757H12.8333V13.5868H12.25V12.9757ZM10.5 13.5868H11.0833V14.1979H10.5V13.5868ZM12.25 9.92017H12.8333V10.5313H12.25V9.92017Z" fill="#55ACEE"/>
<path d="M11.0833 12.3646H11.6666V12.9757H11.0833V12.3646Z" fill="#3B88C3"/>
</svg>
