<svg width="14" height="8" viewBox="0 0 14 8" fill="none" xmlns="http://www.w3.org/2000/svg">
<path d="M6.57023 6.93404L6.57023 6.93404L1.07436 1.84704C1.07435 1.84703 1.07433 1.84701 1.07432 1.847C1.01954 1.79634 0.97569 1.7355 0.945638 1.66788C0.915572 1.60024 0.9 1.52736 0.9 1.45359C0.9 1.37982 0.915572 1.30693 0.945638 1.23929C0.975696 1.17166 1.01956 1.1108 1.07435 1.06014C1.07435 1.06014 1.07436 1.06014 1.07436 1.06013L1.14225 1.13356C1.23452 1.04823 1.35823 1.00048 1.48703 1.00048C1.61583 1.00048 1.73955 1.04823 1.83182 1.13356L6.57023 6.93404ZM6.57023 6.93404C6.68575 7.04096 6.83967 7.1 6.99897 7.1C7.15826 7.1 7.31217 7.04096 7.42769 6.93405C7.4277 6.93405 7.4277 6.93404 7.4277 6.93404L12.9256 1.84704C12.9804 1.79638 13.0243 1.73551 13.0544 1.66788C13.0844 1.60024 13.1 1.52736 13.1 1.45359C13.1 1.37982 13.0844 1.30693 13.0544 1.23929C13.0243 1.17166 12.9804 1.1108 12.9256 1.06013L12.8578 1.13356L12.9258 1.06024C12.8144 0.956998 12.666 0.9 12.5124 0.9C12.3589 0.9 12.2105 0.956973 12.0992 1.06017L6.57023 6.93404Z" fill="#145E94" stroke="#145E94" stroke-width="0.2"/>
</svg>
