<svg width="15" height="15" viewBox="0 0 15 15" fill="none" xmlns="http://www.w3.org/2000/svg">
<path d="M12.1876 2.4H12.1875H10.4125V1.5625C10.4125 1.4531 10.369 1.34818 10.2917 1.27082C10.2143 1.19346 10.1094 1.15 10 1.15C9.8906 1.15 9.78568 1.19346 9.70832 1.27082C9.63096 1.34818 9.5875 1.4531 9.5875 1.5625V2.4H5.4125V1.5625C5.4125 1.4531 5.36904 1.34818 5.29168 1.27082C5.21432 1.19346 5.1094 1.15 5 1.15C4.8906 1.15 4.78568 1.19346 4.70832 1.27082C4.63096 1.34818 4.5875 1.4531 4.5875 1.5625V2.4H2.8125L2.81238 2.4C2.37165 2.40053 1.94913 2.57584 1.63748 2.88748C1.32584 3.19913 1.15053 3.62165 1.15 4.06238V4.0625L1.15 12.1875L1.15 12.1876C1.15053 12.6283 1.32584 13.0509 1.63748 13.3625C1.94913 13.6742 2.37165 13.8495 2.81238 13.85H2.8125H12.1875H12.1876C12.6284 13.8496 13.051 13.6744 13.3627 13.3627C13.6744 13.051 13.8496 12.6284 13.85 12.1876V12.1875V4.0625V4.06242C13.8496 3.62163 13.6744 3.19899 13.3627 2.8873C13.051 2.57561 12.6284 2.40035 12.1876 2.4ZM13.025 12.1875C13.025 12.4096 12.9368 12.6226 12.7797 12.7797C12.6226 12.9368 12.4096 13.025 12.1875 13.025H2.8125C2.59038 13.025 2.37736 12.9368 2.2203 12.7797C2.06324 12.6226 1.975 12.4096 1.975 12.1875V6.975H13.025V12.1875ZM13.025 6.15H1.975V4.0625C1.975 3.60014 2.34907 3.225 2.8125 3.225H4.5875V4.0625C4.5875 4.1719 4.63096 4.27682 4.70832 4.35418C4.78568 4.43154 4.8906 4.475 5 4.475C5.1094 4.475 5.21432 4.43154 5.29168 4.35418C5.36904 4.27682 5.4125 4.1719 5.4125 4.0625V3.225H9.5875V4.0625C9.5875 4.1719 9.63096 4.27682 9.70832 4.35418C9.78568 4.43154 9.8906 4.475 10 4.475C10.1094 4.475 10.2143 4.43154 10.2917 4.35418C10.369 4.27682 10.4125 4.1719 10.4125 4.0625V3.225H12.1875C12.4096 3.225 12.6226 3.31324 12.7797 3.4703C12.9368 3.62736 13.025 3.84038 13.025 4.0625V6.15Z" fill="#145E94" stroke="#145E94" stroke-width="0.2"/>
</svg>
