<svg width="19" height="19" viewBox="0 0 19 19" fill="none" xmlns="http://www.w3.org/2000/svg">
<path d="M10.45 6.65023C12.7917 6.65023 14.1199 8.14553 14.3127 9.95053H14.3716C15.8783 9.95053 17.1 11.1257 17.1 12.5754C17.1 14.0251 15.8783 15.2002 14.3716 15.2002H6.5284C5.0217 15.2002 3.8 14.0251 3.8 12.5754C3.8 11.1257 5.0217 9.95053 6.5284 9.95053H6.5873C6.78205 8.13318 8.10825 6.65023 10.45 6.65023ZM10.45 7.60023C8.8825 7.60023 7.51735 8.80673 7.51735 10.474C7.51735 10.7381 7.27605 10.9452 6.9996 10.9452H6.4771C5.5233 10.9452 4.75 11.6852 4.75 12.5982C4.75 13.5092 5.5233 14.2502 6.4771 14.2502H14.4229C15.3767 14.2502 16.15 13.5102 16.15 12.5972C16.15 11.6852 15.3767 10.9452 14.4229 10.9452H13.9004C13.6249 10.9452 13.3826 10.7381 13.3826 10.474C13.3826 8.78583 12.0175 7.60023 10.45 7.60023ZM7.9724 3.80023C9.3556 3.80023 10.5621 4.58683 11.1578 5.74298C10.753 5.6928 10.3441 5.68579 9.93795 5.72208C9.70329 5.42005 9.40283 5.17552 9.05942 5.00712C8.71602 4.83871 8.33873 4.75085 7.95625 4.75023C7.35889 4.75306 6.7817 4.96664 6.32637 5.35332C5.87105 5.74 5.5668 6.27497 5.46725 6.86398L5.4321 7.06348C5.39401 7.28426 5.27912 7.48448 5.10772 7.62876C4.93632 7.77304 4.71944 7.85211 4.4954 7.85198H4.2503C3.477 7.85198 2.85 8.48658 2.85 9.26938C2.85 9.81088 3.14925 10.2811 3.5891 10.5196C3.3858 10.778 3.2186 11.0668 3.0951 11.3765C2.64253 11.1007 2.28969 10.6879 2.08789 10.1978C1.88608 9.70782 1.84582 9.1662 1.97295 8.65172C2.10009 8.13725 2.38799 7.67673 2.79482 7.33711C3.20165 6.99749 3.70619 6.79647 4.2351 6.76328L4.44505 6.75853C4.59154 5.92949 5.0254 5.17856 5.67045 4.63757C6.31551 4.09658 7.13052 3.80012 7.9724 3.80023Z" fill="#145E94"/>
</svg>
