<svg width="13" height="13" viewBox="0 0 13 13" fill="none" xmlns="http://www.w3.org/2000/svg">
<path d="M6.52506 12.05C7.6178 12.05 8.686 11.726 9.59458 11.1189C10.5032 10.5118 11.2113 9.64889 11.6295 8.63933C12.0477 7.62976 12.1571 6.51887 11.9439 5.44713C11.7307 4.37538 11.2045 3.39092 10.4318 2.61824C9.65914 1.84555 8.67468 1.31935 7.60293 1.10616C6.53119 0.892981 5.4203 1.00239 4.41073 1.42057C3.40117 1.83874 2.53829 2.5469 1.93119 3.45548C1.3241 4.36406 1.00006 5.43226 1.00006 6.525C1.00006 7.43847 1.22106 8.29914 1.61395 9.05852L1.00006 12.05L3.99154 11.4361C4.75031 11.8284 5.61221 12.05 6.52506 12.05Z" stroke="#145E94" stroke-linecap="round" stroke-linejoin="round"/>
</svg>
