<svg width="20" height="21" viewBox="0 0 20 21" fill="none" xmlns="http://www.w3.org/2000/svg">
<path d="M16.2181 1.58077V1.68077H16.3181H17.1826C18.3106 1.68077 19.2438 2.69069 19.2438 3.95192V8.61062L18.003 10.1154V7.42962V7.32962H17.903H2.34231H2.24231V7.42962V17.8627C2.24231 18.3448 2.60175 18.7531 3.06271 18.7531H10.066L11.3882 20.1338H3.06271C1.9347 20.1338 1.0015 19.1239 1.0015 17.8627V3.95192C1.0015 2.69069 1.9347 1.68077 3.06271 1.68077H3.9272H4.0272V1.58077V0.1H5.268V1.58077V1.68077H5.368H14.8773H14.9773V1.58077V0.1H16.2181V1.58077ZM2.24231 5.84885V5.94885H2.34231H17.903H18.003V5.84885V3.95192C18.003 3.46983 17.6436 3.06154 17.1826 3.06154H16.3181H16.2181V3.16154V4.64231H14.9773V3.16154V3.06154H14.8773H5.368H5.268V3.16154V4.64231H4.0272V3.16154V3.06154H3.9272H3.06271C2.60175 3.06154 2.24231 3.46983 2.24231 3.95192V5.84885ZM10.1545 16.3738L11.0163 15.3806L13.5469 18.0236L13.625 18.1051L13.6965 18.0177L18.2755 12.4243L19.2043 13.3396L13.6942 20.0705L10.1545 16.3738ZM13.6247 10.5702H12.3839V9.18942H13.6247V10.5702ZM16.5063 9.18942V10.5702H15.2655V9.18942H16.5063ZM4.97984 13.7317H3.73903V12.351H4.97984V13.7317ZM7.86145 13.7317H6.62065V12.351H7.86145V13.7317ZM9.50226 12.351H10.7431V13.7317H9.50226V12.351ZM12.3839 12.351H13.6247V13.7317H12.3839V12.351ZM3.73903 15.5125H4.97984V16.8933H3.73903V15.5125ZM6.62065 15.5125H7.86145V16.8933H6.62065V15.5125ZM4.97984 10.5702H3.73903V9.18942H4.97984V10.5702ZM7.86145 10.5702H6.62065V9.18942H7.86145V10.5702ZM10.7431 10.5702H9.50226V9.18942H10.7431V10.5702Z" fill="currentColor" stroke="#1F1B1B" stroke-width="0.2"/>
</svg>
