<svg width="16" height="16" viewBox="0 0 16 16" fill="none" xmlns="http://www.w3.org/2000/svg">
<path d="M14.6667 7.44444H8.55556V1.33333C8.55556 1.18598 8.49703 1.04468 8.39284 0.94049C8.28866 0.836303 8.14735 0.777771 8.00001 0.777771C7.85266 0.777771 7.71136 0.836303 7.60717 0.94049C7.50298 1.04468 7.44445 1.18598 7.44445 1.33333V7.44444H1.33334C1.186 7.44444 1.04469 7.50297 0.940503 7.60716C0.836316 7.71134 0.777784 7.85265 0.777784 7.99999C0.775043 8.0722 0.78781 8.14415 0.815226 8.211C0.842642 8.27785 0.884069 8.33805 0.936716 8.38754C0.989362 8.43703 1.05201 8.47465 1.12042 8.49788C1.18884 8.52112 1.26144 8.52941 1.33334 8.52222H7.44445V14.6667C7.44445 14.814 7.50298 14.9553 7.60717 15.0595C7.71136 15.1637 7.85266 15.2222 8.00001 15.2222C8.14735 15.2222 8.28866 15.1637 8.39284 15.0595C8.49703 14.9553 8.55556 14.814 8.55556 14.6667V8.55555H14.6667C14.814 8.55555 14.9553 8.49702 15.0595 8.39283C15.1637 8.28864 15.2222 8.14734 15.2222 7.99999C15.2222 7.85265 15.1637 7.71134 15.0595 7.60716C14.9553 7.50297 14.814 7.44444 14.6667 7.44444Z" fill="#145E94"/>
</svg>
