<svg width="15" height="15" viewBox="0 0 15 15" fill="none" xmlns="http://www.w3.org/2000/svg">
<path d="M7.16813 1.07439C7.21167 1.03074 7.26339 0.996102 7.32034 0.972471C7.37729 0.94884 7.43834 0.936676 7.5 0.936676C7.56166 0.936676 7.62271 0.94884 7.67966 0.972471C7.7366 0.996102 7.78833 1.03074 7.83187 1.07439C8.07656 1.32001 9.15188 2.43376 10.1691 3.8897C11.1722 5.32501 12.1875 7.18595 12.1875 8.90626C12.1875 10.575 11.6466 11.8735 10.7663 12.7547C9.88969 13.6331 8.71031 14.0625 7.5 14.0625C6.28969 14.0625 5.11031 13.6331 4.23375 12.7547C3.35344 11.8735 2.8125 10.576 2.8125 8.90626C2.8125 7.18595 3.82781 5.32501 4.83094 3.89064C5.53331 2.8908 6.31488 1.94902 7.16813 1.07439ZM5.59875 4.42689C4.60969 5.84251 3.75 7.4972 3.75 8.90626C3.75 10.366 4.21875 11.4122 4.8975 12.0919C5.57812 12.7763 6.51 13.125 7.5 13.125C8.49 13.125 9.42094 12.7753 10.1025 12.0919C10.7822 11.4122 11.25 10.3669 11.25 8.90626C11.25 7.4972 10.3912 5.84345 9.40125 4.42689C8.82105 3.60368 8.18585 2.82064 7.5 2.08314C6.81414 2.82064 6.17894 3.60367 5.59875 4.42689Z" fill="#145E94"/>
</svg>
