<svg width="26" height="21" viewBox="0 0 26 21" fill="none" xmlns="http://www.w3.org/2000/svg">
<path d="M9.93666 6.25126H9.68666V6.00126V1.65885C9.68666 0.880887 9.05731 0.25 8.28723 0.25H1.6566C0.88652 0.25 0.257175 0.880887 0.257175 1.65885V11.7011V13.36V13.6918V14.8725V15.9341V18.5883V19.1191C0.257175 19.2561 0.253464 19.3797 0.249598 19.4894C0.248817 19.5115 0.248039 19.5329 0.247286 19.5536C0.24424 19.6372 0.241592 19.71 0.240841 19.7766C0.238861 19.9519 0.252768 20.0288 0.272705 20.0689C0.280857 20.0853 0.297489 20.1172 0.406628 20.1465C0.52704 20.1789 0.719051 20.1962 1.02975 20.1962L1.0312 20.1962L23.9252 20.3289C23.9255 20.3289 23.9258 20.3289 23.926 20.3289C24.8404 20.3285 25.5871 19.5793 25.5871 18.6561V12.1908C25.5871 11.4128 24.9578 10.7819 24.1877 10.7819H17.8869H17.6369V10.5319V7.66011C17.6369 6.88215 17.0075 6.25126 16.2375 6.25126H9.93666ZM17.8869 18.8383H17.6369V18.5883V12.5225V12.2725H17.8869H23.8578H24.1078V12.5225V18.5883V18.8383H23.8578H17.8869ZM9.93666 18.8383H9.68666V18.5883V7.99188V7.74188H9.93666H15.9076H16.1576V7.99188V7.9945V7.99733V8.00038V8.00363V8.00709V8.01077V8.01465V8.01873V8.02302V8.02752V8.03223V8.03713V8.04224V8.04755V8.05306V8.05878V8.06469V8.0708V8.07711V8.08361V8.09031V8.09721V8.1043V8.11159V8.11907V8.12674V8.1346V8.14265V8.15089V8.15932V8.16794V8.17674V8.18573V8.19491V8.20427V8.21382V8.22354V8.23345V8.24354V8.25381V8.26427V8.2749V8.2857V8.29669V8.30785V8.31918V8.3307V8.34238V8.35424V8.36627V8.37847V8.39084V8.40338V8.41609V8.42897V8.44201V8.45522V8.4686V8.48214V8.49584V8.50971V8.52374V8.53793V8.55228V8.5668V8.58147V8.59629V8.61128V8.62642V8.64172V8.65717V8.67277V8.68853V8.70444V8.7205V8.73672V8.75308V8.76959V8.78625V8.80305V8.82001V8.8371V8.85435V8.87173V8.88926V8.90693V8.92475V8.9427V8.96079V8.97903V8.9974V9.0159V9.03455V9.05333V9.07224V9.09129V9.11047V9.12978V9.14923V9.1688V9.18851V9.20834V9.2283V9.24839V9.26861V9.28895V9.30941V9.33V9.35071V9.37155V9.3925V9.41358V9.43478V9.45609V9.47753V9.49908V9.52075V9.54253V9.56443V9.58644V9.60856V9.6308V9.65315V9.67561V9.69818V9.72085V9.74364V9.76653V9.78953V9.81264V9.83585V9.85916V9.88258V9.9061V9.92972V9.95344V9.97726V10.0012V10.0252V10.0493V10.0735V10.0978V10.1222V10.1467V10.1713V10.196V10.2208V10.2457V10.2706V10.2957V10.3208V10.346V10.3713V10.3967V10.4222V10.4477V10.4734V10.4991V10.5249V10.5508V10.5768V10.6028V10.6289V10.6551V10.6814V10.7078V10.7342V10.7607V10.7873V10.8139V10.8407V10.8675V10.8943V10.9212V10.9482V10.9753V11.0024V11.0296V11.0569V11.0842V11.1116V11.1391V11.1666V11.1942V11.2218V11.2495V11.2773V11.3051V11.3329V11.3609V11.3888V11.4169V11.445V11.4731V11.5013V11.5295V11.5578V11.5862V11.6145V11.643V11.6715V11.7V11.7286V11.7572V11.7858V11.8145V11.8433V11.8721V11.9009V11.9298V11.9587V11.9876V12.0166V12.0456V12.0746V12.1037V12.1328V12.162V12.1912V12.2204V12.2496V12.2789V12.3082V12.3375V12.3669V12.3963V12.4257V12.4551V12.4845V12.514V12.5435V12.573V12.6026V12.6321V12.6617V12.6913V12.7209V12.7505V12.7802V12.8098V12.8395V12.8692V12.8988V12.9286V12.9583V12.988V13.0177V13.0475V13.0772V13.107V13.1367V13.1665V13.1962V13.226V13.2558V13.2855V13.3153V13.3451V13.3748V13.4046V13.4344V13.4641V13.4939V13.5236V13.5534V13.5831V13.6128V13.6425V13.6722V13.7019V13.7316V13.7613V13.791V13.8206V13.8502V13.8798V13.9094V13.939V13.9686V13.9981V14.0277V14.0572V14.0866V14.1161V14.1455V14.1749V14.2043V14.2337V14.263V14.2923V14.3216V14.3509V14.3801V14.4093V14.4384V14.4676V14.4967V14.5257V14.5547V14.5837V14.6127V14.6416V14.6705V14.6993V14.7281V14.7569V14.7856V14.8143V14.8429V14.8715V14.9V14.9285V14.957V14.9854V15.0137V15.042V15.0703V15.0985V15.1267V15.1548V15.1828V15.2108V15.2388V15.2666V15.2945V15.3222V15.35V15.3776V15.4052V15.4328V15.4602V15.4876V15.515V15.5423V15.5695V15.5966V15.6237V15.6508V15.6777V15.7046V15.7314V15.7582V15.7848V15.8114V15.838V15.8644V15.8908V15.9171V15.9433V15.9695V15.9956V16.0216V16.0475V16.0733V16.0991V16.1247V16.1503V16.1758V16.2012V16.2266V16.2518V16.277V16.3021V16.327V16.3519V16.3767V16.4015V16.4261V16.4506V16.475V16.4994V16.5236V16.5478V16.5718V16.5958V16.6196V16.6434V16.667V16.6906V16.714V16.7374V16.7606V16.7838V16.8068V16.8297V16.8526V16.8753V16.8979V16.9204V16.9428V16.965V16.9872V17.0093V17.0312V17.053V17.0747V17.0963V17.1178V17.1391V17.1604V17.1815V17.2025V17.2234V17.2441V17.2647V17.2853V17.3056V17.3259V17.346V17.366V17.3859V17.4057V17.4253V17.4448V17.4641V17.4833V17.5024V17.5214V17.5402V17.5589V17.5775V17.5959V17.6142V17.6323V17.6503V17.6682V17.6859V17.7034V17.7209V17.7382V17.7553V17.7723V17.7892V17.8059V17.8224V17.8389V17.8551V17.8712V17.8872V17.903V17.9187V17.9342V17.9495V17.9647V17.9797V17.9946V18.0093V18.0239V18.0383V18.0526V18.0666V18.0806V18.0943V18.1079V18.1214V18.1346V18.1477V18.1607V18.1734V18.186V18.1984V18.2107V18.2228V18.2347V18.2464V18.258V18.2694V18.2806V18.2917V18.3025V18.3132V18.3237V18.3341V18.3442V18.3542V18.364V18.3736V18.383V18.3922V18.4013V18.4102V18.4188V18.4273V18.4356V18.4438V18.4517V18.4594V18.467V18.4743V18.4815V18.4884V18.4952V18.5018V18.5081V18.5143V18.5203V18.5261V18.5317V18.537V18.5422V18.5472V18.552V18.5565V18.5609V18.565V18.569V18.5727V18.5763V18.5796V18.5827V18.5856V18.5883V18.8383H15.9076H9.93666ZM1.98642 18.8383H1.73642V18.5883V1.99062V1.74062H1.98642H7.95734H8.20734V1.99062V1.99409V1.99789V2.00201V2.00646V2.01122V2.01631V2.02172V2.02745V2.03349V2.03985V2.04652V2.0535V2.0608V2.06841V2.07633V2.08456V2.09309V2.10193V2.11107V2.12052V2.13027V2.14032V2.15067V2.16131V2.17226V2.1835V2.19503V2.20686V2.21898V2.23139V2.24409V2.25708V2.27036V2.28392V2.29776V2.31189V2.3263V2.34099V2.35597V2.37121V2.38674V2.40254V2.41862V2.43497V2.45159V2.46848V2.48565V2.50308V2.52078V2.53874V2.55697V2.57546V2.59421V2.61322V2.6325V2.65203V2.67182V2.69186V2.71216V2.73271V2.75352V2.77457V2.79588V2.81743V2.83923V2.86127V2.88356V2.9061V2.92887V2.95189V2.97514V2.99864V3.02237V3.04633V3.07053V3.09497V3.11963V3.14453V3.16966V3.19501V3.2206V3.2464V3.27243V3.29869V3.32517V3.35187V3.37878V3.40592V3.43327V3.46084V3.48862V3.51662V3.54483V3.57325V3.60188V3.63071V3.65976V3.68901V3.71846V3.74812V3.77798V3.80804V3.8383V3.86876V3.89941V3.93026V3.96131V3.99255V4.02398V4.0556V4.08741V4.11941V4.1516V4.18397V4.21653V4.24927V4.28219V4.31529V4.34857V4.38204V4.41567V4.44949V4.48347V4.51764V4.55197V4.58647V4.62115V4.65599V4.691V4.72617V4.76151V4.79701V4.83268V4.8685V4.90449V4.94063V4.97693V5.01339V5.05V5.08676V5.12368V5.16074V5.19796V5.23532V5.27283V5.31049V5.34829V5.38624V5.42433V5.46255V5.50092V5.53943V5.57807V5.61685V5.65576V5.69481V5.73398V5.77329V5.81273V5.8523V5.89199V5.93181V5.97176V6.01182V6.05201V6.09232V6.13275V6.1733V6.21397V6.25475V6.29564V6.33665V6.37777V6.41901V6.46035V6.5018V6.54335V6.58502V6.62678V6.66865V6.71062V6.7527V6.79487V6.83714V6.87951V6.92197V6.96453V7.00718V7.04993V7.09276V7.13568V7.1787V7.2218V7.26498V7.30825V7.3516V7.39504V7.43855V7.48215V7.52582V7.56957V7.6134V7.6573V7.70128V7.74532V7.78944V7.83363V7.87788V7.9222V7.96659V8.01104V8.05556V8.10014V8.14478V8.18947V8.23423V8.27904V8.32391V8.36884V8.41381V8.45884V8.50392V8.54905V8.59423V8.63945V8.68473V8.73004V8.7754V8.8208V8.86624V8.91172V8.95724V9.0028V9.04839V9.09402V9.13968V9.18537V9.23109V9.27684V9.32263V9.36843V9.41427V9.46013V9.50601V9.55191V9.59784V9.64378V9.68974V9.73572V9.78172V9.82773V9.87375V9.91978V9.96583V10.0119V10.0579V10.104V10.1501V10.1962V10.2423V10.2883V10.3344V10.3805V10.4266V10.4727V10.5188V10.5648V10.6109V10.657V10.703V10.7491V10.7951V10.8411V10.8871V10.9331V10.979V11.025V11.0709V11.1168V11.1627V11.2086V11.2544V11.3002V11.346V11.3918V11.4375V11.4832V11.5289V11.5745V11.6201V11.6657V11.7112V11.7567V11.8022V11.8476V11.893V11.9383V11.9836V12.0288V12.074V12.1192V12.1643V12.2093V12.2543V12.2992V12.3441V12.389V12.4337V12.4784V12.5231V12.5677V12.6122V12.6567V12.7011V12.7455V12.7897V12.8339V12.8781V12.9221V12.9661V13.0101V13.0539V13.0977V13.1414V13.185V13.2285V13.272V13.3154V13.3587V13.4019V13.445V13.4881V13.531V13.5739V13.6166V13.6593V13.7019V13.7444V13.7868V13.8291V13.8713V13.9134V13.9554V13.9973V14.0391V14.0808V14.1224V14.1639V14.2052V14.2465V14.2877V14.3287V14.3696V14.4105V14.4512V14.4917V14.5322V14.5726V14.6128V14.6529V14.6929V14.7327V14.7725V14.8121V14.8515V14.8909V14.9301V14.9692V15.0082V15.047V15.0857V15.1242V15.1626V15.2009V15.239V15.277V15.3149V15.3526V15.3901V15.4275V15.4648V15.5019V15.5389V15.5757V15.6123V15.6488V15.6852V15.7214V15.7574V15.7933V15.829V15.8645V15.8999V15.9352V15.9702V16.0051V16.0398V16.0744V16.1088V16.143V16.177V16.2109V16.2446V16.2781V16.3114V16.3446V16.3776V16.4104V16.443V16.4754V16.5077V16.5397V16.5716V16.6033V16.6348V16.666V16.6972V16.7281V16.7588V16.7893V16.8196V16.8497V16.8797V16.9094V16.9389V16.9682V16.9973V17.0262V17.0549V17.0834V17.1117V17.1397V17.1676V17.1952V17.2226V17.2498V17.2768V17.3036V17.3301V17.3565V17.3826V17.4084V17.4341V17.4595V17.4847V17.5097V17.5344V17.5589V17.5832V17.6072V17.631V17.6546V17.6779V17.701V17.7239V17.7465V17.7688V17.791V17.8128V17.8345V17.8558V17.877V17.8979V17.9185V17.9389V17.959V17.9789V17.9985V18.0178V18.0369V18.0557V18.0743V18.0926V18.1107V18.1284V18.146V18.1632V18.1802V18.1969V18.2133V18.2295V18.2454V18.261V18.2763V18.2914V18.3061V18.3206V18.3349V18.3488V18.3624V18.3758V18.3889V18.4017V18.4142V18.4264V18.4383V18.4499V18.4612V18.4723V18.483V18.4935V18.5036V18.5134V18.523V18.5322V18.5412V18.5498V18.5581V18.5661V18.5738V18.5812V18.5883V18.8383H7.95734H1.98642Z" fill="currentColor" stroke="#1F1B1B" stroke-width="0.5"/>
</svg>
