<svg width="11" height="20" viewBox="0 0 11 20" fill="none" xmlns="http://www.w3.org/2000/svg">
<path d="M8.70401 9.99991L0.212008 1.27291C0.142092 1.20258 0.0868175 1.11908 0.0493833 1.02725C0.0119491 0.935419 -0.00690145 0.837075 -0.00607763 0.73791C-0.00525382 0.638745 0.0152275 0.540728 0.0541822 0.449531C0.0931369 0.358334 0.149791 0.275767 0.220866 0.20661C0.291941 0.137452 0.376025 0.0830768 0.468253 0.04663C0.560481 0.0101833 0.659023 -0.00761119 0.758173 -0.00572347C0.857324 -0.00383576 0.955115 0.0176966 1.04589 0.0576276C1.13666 0.0975585 1.21862 0.155095 1.28701 0.226908L10.287 9.47691C10.4232 9.61692 10.4994 9.80456 10.4994 9.99991C10.4994 10.1953 10.4232 10.3829 10.287 10.5229L1.28701 19.7729C1.21862 19.8447 1.13666 19.9023 1.04589 19.9422C0.955115 19.9821 0.857324 20.0037 0.758173 20.0055C0.659023 20.0074 0.560481 19.9896 0.468253 19.9532C0.376025 19.9167 0.291941 19.8624 0.220866 19.7932C0.149791 19.7241 0.0931369 19.6415 0.0541822 19.5503C0.0152275 19.4591 -0.00525382 19.3611 -0.00607763 19.2619C-0.00690145 19.1627 0.0119491 19.0644 0.0493833 18.9726C0.0868175 18.8807 0.142092 18.7972 0.212008 18.7269L8.70401 9.99991Z" fill="black"/>
</svg>
