<svg width="20" height="20" viewBox="0 0 20 20" fill="none" xmlns="http://www.w3.org/2000/svg">
<path d="M2.18399 2.11201C2.25864 2.05102 2.34933 2.01291 2.44513 2.00226C2.54094 1.99162 2.63778 2.0089 2.72399 2.05201L17.724 9.55201C17.8072 9.59348 17.8772 9.65732 17.9261 9.73637C17.975 9.81542 18.001 9.90655 18.001 9.99951C18.001 10.0925 17.975 10.1836 17.9261 10.2627C17.8772 10.3417 17.8072 10.4055 17.724 10.447L2.72399 17.947C2.63787 17.9902 2.54111 18.0075 2.44536 17.9969C2.34961 17.9864 2.25895 17.9484 2.18427 17.8876C2.10959 17.8267 2.05408 17.7456 2.0244 17.654C1.99472 17.5623 1.99215 17.4641 2.01699 17.371L3.98299 10L2.01699 2.62901C1.99203 2.53591 1.99452 2.43758 2.02415 2.34585C2.05377 2.25413 2.10928 2.17292 2.18399 2.11201ZM4.88399 10.5L3.26999 16.556L16.382 10L3.26899 3.44401L4.88399 9.50001H11.5C11.6326 9.50001 11.7598 9.55269 11.8535 9.64646C11.9473 9.74023 12 9.8674 12 10C12 10.1326 11.9473 10.2598 11.8535 10.3536C11.7598 10.4473 11.6326 10.5 11.5 10.5H4.88399Z" fill="white"/>
</svg>
