<svg width="18" height="19" viewBox="0 0 18 19" fill="none" xmlns="http://www.w3.org/2000/svg">
<path d="M14.1172 12.151C13.0444 12.151 12.0912 12.6723 11.4973 13.4748L6.38357 10.8615C6.46936 10.57 6.51562 10.2618 6.51562 9.94293C6.51562 9.51106 6.43096 9.09865 6.27766 8.72115L11.6371 5.50105C12.2351 6.20293 13.125 6.64892 14.1172 6.64892C15.9135 6.64892 17.375 5.18747 17.375 3.39111C17.375 1.59476 15.9135 0.133301 14.1172 0.133301C12.3208 0.133301 10.8594 1.59476 10.8594 3.39111C10.8594 3.8063 10.9376 4.2035 11.0798 4.56899L5.70696 7.79712C5.10941 7.11595 4.23302 6.68512 3.25781 6.68512C1.46145 6.68512 0 8.14658 0 9.94293C0 11.7393 1.46145 13.2007 3.25781 13.2007C4.34817 13.2007 5.31501 12.6623 5.90667 11.8373L11.0055 14.443C10.9106 14.7483 10.8594 15.0727 10.8594 15.4088C10.8594 17.2052 12.3208 18.6666 14.1172 18.6666C15.9135 18.6666 17.375 17.2052 17.375 15.4088C17.375 13.6125 15.9135 12.151 14.1172 12.151ZM14.1172 1.21924C15.3148 1.21924 16.2891 2.19354 16.2891 3.39111C16.2891 4.58868 15.3148 5.56299 14.1172 5.56299C12.9196 5.56299 11.9453 4.58868 11.9453 3.39111C11.9453 2.19354 12.9196 1.21924 14.1172 1.21924ZM3.25781 12.1148C2.06024 12.1148 1.08594 11.1405 1.08594 9.94293C1.08594 8.74536 2.06024 7.77106 3.25781 7.77106C4.45538 7.77106 5.42969 8.74536 5.42969 9.94293C5.42969 11.1405 4.45538 12.1148 3.25781 12.1148ZM14.1172 17.5807C12.9196 17.5807 11.9453 16.6064 11.9453 15.4088C11.9453 14.2112 12.9196 13.2369 14.1172 13.2369C15.3148 13.2369 16.2891 14.2112 16.2891 15.4088C16.2891 16.6064 15.3148 17.5807 14.1172 17.5807Z" fill="currentColor"/>
</svg>
